<svg xmlns="http://www.w3.org/2000/svg"  viewBox="0 0 64 64" width="1500px" height="1500px">
<path fill="red" d="M50.68,25.68c0,9.447-8.607,22.144-13.738,28.871C35.754,56.107,33.953,57,32,57s-3.754-0.893-4.941-2.449	C21.928,47.824,13.32,35.127,13.32,25.68C13.32,15.38,21.7,7,32,7S50.68,15.38,50.68,25.68z M25.201,34.133	c0.617-0.552,0.67-1.5,0.118-2.118c-3.076-3.44-3.078-8.61-0.003-12.027c0.554-0.616,0.504-1.564-0.112-2.119	c-0.613-0.553-1.562-0.505-2.118,0.112c-4.101,4.557-4.102,11.45-0.003,16.034c0.296,0.331,0.707,0.5,1.119,0.5	C24.558,34.515,24.915,34.389,25.201,34.133z M32,22c-2.209,0-4,1.791-4,4s1.791,4,4,4s4-1.791,4-4S34.209,22,32,22z M40.917,34.015	c4.099-4.583,4.098-11.477-0.003-16.034c-0.556-0.617-1.504-0.665-2.118-0.112c-0.616,0.554-0.666,1.503-0.112,2.119	c3.075,3.417,3.073,8.587-0.003,12.027c-0.552,0.618-0.499,1.566,0.118,2.118c0.286,0.256,0.644,0.382,0.999,0.382	C40.21,34.515,40.621,34.346,40.917,34.015z"/></svg>